PathFileType	4	(X/Y/Z)	C:\Users\Basilio\Documents\Thesis Gigler\squatting_fais\c3dfiles\041\SLS_pre_back5\markers_experimental.trc
DataRate	CameraRate	NumFrames	NumMarkers	Units	OrigDataRate	OrigDataStartFrame	OrigNumFrames
200.000000	200.000000	4	64	mm	200.000000	676	1353
Frame#	Time	FHD			LBHD			RBHD			C7			T10			CLAV			LSHO			LUUPA			LMUPA			LDUPA			LLEP			LMEP			LRAD			LUL			LRFIN			RSHO			RUPA1			RMUPA			RDUPA			RLEP			RMEP			RRAD			RUL			RUFIN			LASI			RASI			USACR			LSACR			RSACR			LTHI1			LTHI2			LTHI3			LTHI4			LLFC			LMFC			LTIB1			LTIB2			LTIB3			LTIB4			LLMAL			LMMAL			LHEE			LMT1			LMT2			LMT5			RTHI			RTHI2			RTHI3			RTHI4			RLFC			RMFC			RTIB1			RTIB2			RTIB3			RTIB4			RLMAL			RMMAL			RHEE			RMT1			RMT2			RMT5			*61			*62			*63			
		X1	Y1	Z1	X2	Y2	Z2	X3	Y3	Z3	X4	Y4	Z4	X5	Y5	Z5	X6	Y6	Z6	X7	Y7	Z7	X8	Y8	Z8	X9	Y9	Z9	X10	Y10	Z10	X11	Y11	Z11	X12	Y12	Z12	X13	Y13	Z13	X14	Y14	Z14	X15	Y15	Z15	X16	Y16	Z16	X17	Y17	Z17	X18	Y18	Z18	X19	Y19	Z19	X20	Y20	Z20	X21	Y21	Z21	X22	Y22	Z22	X23	Y23	Z23	X24	Y24	Z24	X25	Y25	Z25	X26	Y26	Z26	X27	Y27	Z27	X28	Y28	Z28	X29	Y29	Z29	X30	Y30	Z30	X31	Y31	Z31	X32	Y32	Z32	X33	Y33	Z33	X34	Y34	Z34	X35	Y35	Z35	X36	Y36	Z36	X37	Y37	Z37	X38	Y38	Z38	X39	Y39	Z39	X40	Y40	Z40	X41	Y41	Z41	X42	Y42	Z42	X43	Y43	Z43	X44	Y44	Z44	X45	Y45	Z45	X46	Y46	Z46	X47	Y47	Z47	X48	Y48	Z48	X49	Y49	Z49	X50	Y50	Z50	X51	Y51	Z51	X52	Y52	Z52	X53	Y53	Z53	X54	Y54	Z54	X55	Y55	Z55	X56	Y56	Z56	X57	Y57	Z57	X58	Y58	Z58	X59	Y59	Z59	X60	Y60	Z60	X61	Y61	Z61	X62	Y62	Z62	X63	Y63	Z63	X64	Y64	Z64	

677	3.38	-79.30013275146486	1515.810302734375	-1208.378662109375	-254.9607086181641	1444.425537109375	-1281.650268554688	-237.5427551269532	1457.588623046875	-1129.203369140625	-303.9027099609376	1341.580688476563	-1197.786499023438	-450.3807067871095	1096.125366210938	-1087.573364257813	-169.2584686279297	1242.699340820313	-1186.453857421875	-232.5957794189454	1326.869262695313	-1322.702758789063	-130.4153289794922	1300.302490234375	-1453.436279296875	-87.13450622558595	1316.964111328125	-1439.0986328125	-71.79522705078126	1289.347412109375	-1491.815795898438	-29.11163520812989	1280.607299804688	-1507.143310546875	14.57962036132813	1225.590576171875	-1454.30126953125	239.1541290283204	1283.900146484375	-1576.9345703125	200.4007263183594	1282.14892578125	-1638.235961914063	293.2372741699219	1328.245483398438	-1608.192749023438	-202.5311737060547	1364.227905273438	-1088.0830078125	-80.25366973876955	1401.39111328125	-958.1220703125002	-57.35934829711915	1414.31103515625	-1001.193725585938	-13.70936679840088	1423.166259765625	-960.577575683594	30.68009567260743	1427.939086914063	-956.436218261719	56.61151504516603	1344.273071289063	-954.734802246094	300.8494262695313	1444.076538085938	-973.8030395507815	284.2840881347657	1471.755493164063	-906.7817382812502	379.7979125976563	1469.325927734375	-968.821716308594	-359.7210998535157	872.5364379882815	-1180.337280273438	-375.2041931152344	854.0424804687502	-955.2835693359377	-511.8948669433595	995.080749511719	-1068.266845703125	-536.2506103515626	977.926452636719	-1097.533325195313	-539.2921142578126	973.5398559570315	-1042.89697265625	-406.128143310547	712.5325927734376	-1253.083251953125	-329.1691894531251	676.4944458007814	-1248.071533203125	-294.2787170410157	706.7405395507814	-1237.732788085938	-317.3122863769532	616.3145141601564	-1239.493286132813	-204.3602600097657	489.7417297363282	-1211.426635742188	-196.0108642578126	483.746063232422	-1096.233154296875	-225.6898040771485	310.0480651855469	-1134.597534179688	-289.6616516113282	277.7434387207032	-1192.250732421875	-253.7275390625001	266.5809631347657	-1166.312255859375	-280.9156188964844	199.4137420654297	-1123.364868164063	-370.3664855957032	118.2602767944336	-1155.039672851563	-333.2375183105469	145.373764038086	-1077.100463867188	-441.122772216797	110.4669647216797	-1108.04248046875	-235.963119506836	79.06660461425783	-1063.8837890625	-224.5513916015626	62.5085906982422	-1105.2890625	-270.1733093261719	33.15459442138673	-1156.454956054688	-478.5888061523439	620.1848754882814	-877.1296997070315	-431.1889648437501	573.5786743164064	-867.4891357421877	-398.8010253906251	580.2890014648439	-872.0269775390627	-443.8762512207032	489.6218872070314	-879.6898193359377	-438.9088439941407	402.601287841797	-882.6345214843752	-426.9242553710939	372.6991271972657	-992.5963134765627	-567.0534057617189	309.7570190429688	-909.6729736328127	-664.6530761718751	367.3320922851563	-913.1132812500002	-653.9735717773439	322.3302001953126	-909.5686035156252	-688.0238647460939	285.1965942382813	-943.1419067382815	-819.6939086914065	303.9315490722657	-948.3941650390627	-776.5958251953127	285.0637207031251	-1021.138305664063	-849.4995727539065	358.6306457519532	-1004.363708496094	-820.388366699219	146.2924346923828	-1033.09228515625	-832.3215942382815	134.3598785400391	-982.1594238281252	-875.5545043945315	168.6918640136719	-944.2698364257815	-4216.697265625001	853.0397949218752	-3944.782226562501	nan	nan	nan	nan	nan	nan	
678	3.385	-78.71278381347658	1514.78857421875	-1210.087646484375	-254.6385192871094	1443.476318359375	-1283.121337890625	-237.0816802978516	1456.908569335938	-1131.1083984375	-303.7529907226563	1340.942260742188	-1198.968017578125	-450.2478637695314	1096.033813476563	-1087.363159179688	-168.9576568603516	1241.892700195313	-1187.217041015625	-232.3862304687501	1325.6904296875	-1323.728393554688	-130.1358337402344	1298.706420898438	-1454.64599609375	-87.04041290283205	1315.551635742188	-1440.28662109375	-71.81441497802736	1287.64013671875	-1492.734008789063	-29.1833724975586	1279.064697265625	-1508.282592773438	15.37834835052491	1223.877685546875	-1454.962646484375	239.2425537109376	1282.626953125	-1578.39111328125	200.4795227050782	1280.0380859375	-1639.642456054688	293.1409606933594	1326.53125	-1609.914794921875	-201.7521667480469	1363.890502929688	-1089.10107421875	-80.51181030273439	1401.594482421875	-958.8242187500002	-57.27602767944337	1414.441772460938	-1001.808532714844	-13.8956470489502	1423.412841796875	-960.9790039062502	30.48524475097657	1428.088500976563	-956.620788574219	56.52463150024415	1344.732543945313	-955.4851684570315	300.6025390625001	1444.5537109375	-972.3911132812502	283.7110595703126	1472.2353515625	-905.5454101562502	379.1862182617188	1469.715698242188	-967.035583496094	-359.7729492187501	872.0637207031252	-1180.079833984375	-375.0468444824219	854.253845214844	-954.9339599609377	-511.9222412109376	995.1206054687502	-1067.719116210938	-536.3988647460939	978.0393066406252	-1096.785522460938	-537.1445922851564	973.0511474609377	-1041.352416992188	-406.6106872558595	712.4014282226564	-1252.674438476563	-329.6542358398438	676.4547119140626	-1247.744506835938	-294.8577270507813	706.7259521484376	-1237.435913085938	-317.6930236816407	616.3847045898439	-1239.239868164063	-204.6573028564454	489.893768310547	-1211.543823242188	-196.023422241211	483.705780029297	-1096.467895507813	-225.7071685791016	310.1938171386719	-1134.86474609375	-289.2497558593751	277.9502868652344	-1193.400390625	-253.8908386230469	266.5688171386719	-1166.593505859375	-280.8443298339844	199.509506225586	-1123.617431640625	-370.7332458496094	118.5181884765625	-1155.237060546875	-333.2020263671876	145.4860534667969	-1077.407470703125	-441.1022033691407	110.5016708374024	-1108.176147460938	-236.0032348632813	79.10800933837892	-1063.986328125	-224.5994110107422	62.53687667846681	-1105.461547851563	-270.6101989746094	33.34695053100587	-1156.634521484375	-478.6015625000001	620.4898681640626	-876.0343017578127	-431.2151184082032	573.9899291992189	-866.2158813476565	-398.8143615722657	580.5926513671876	-870.7608642578127	-444.0045471191407	489.9259033203126	-878.3391113281252	-438.6544189453126	402.9487609863282	-881.2332763671877	-428.6069946289064	373.8808593750001	-991.9610595703127	-567.1647338867189	310.2187805175782	-907.7398071289065	-664.8321533203126	368.0921630859376	-911.6894531250002	-653.8915405273439	322.8377075195313	-908.1097412109377	-688.0847778320314	285.7687683105469	-941.879821777344	-819.7408447265627	304.7174987792969	-947.2174072265627	-776.5607910156252	285.8390502929688	-1019.851745605469	-849.4985961914065	359.7880859375001	-1003.045837402344	-820.8779296875002	147.4854888916016	-1032.291381835938	-832.9301757812502	135.3336791992188	-981.589294433594	-876.0615844726565	169.7800445556641	-943.9985351562502	-4216.763671875001	853.0534667968752	-3944.708496093751	nan	nan	nan	nan	nan	nan	
679	3.39	-78.52202606201173	1513.555297851563	-1211.55419921875	-254.3696594238282	1442.3837890625	-1284.717163085938	-236.7085723876954	1456.298950195313	-1132.692504882813	-303.4572448730469	1340.18896484375	-1199.971435546875	-450.1155700683595	1095.971923828125	-1087.155639648438	-168.4037170410157	1241.287475585938	-1188.123413085938	-232.1535034179688	1324.636840820313	-1324.739868164063	-130.104248046875	1297.206909179688	-1455.573486328125	-86.8043670654297	1314.041259765625	-1441.427368164063	-71.77628326416017	1285.998046875	-1493.95947265625	-28.39204025268555	1276.950561523438	-1509.227416992188	14.98759460449219	1222.704223632813	-1456.03662109375	238.9735260009766	1280.552368164063	-1579.700805664063	200.2441558837891	1278.178955078125	-1641.130493164063	292.8764343261719	1324.759033203125	-1611.50830078125	-201.4094238281251	1363.502075195313	-1090.314208984375	-80.84927368164064	1401.911254882813	-959.7190551757815	-57.11365890502931	1414.68798828125	-1002.629638671875	-14.23544883728028	1423.704223632813	-961.3150634765627	30.30792617797852	1428.258544921875	-956.7813720703127	56.30525970458986	1345.015625	-955.3720703125002	300.3943481445313	1445.06884765625	-970.8198242187502	283.0201721191407	1472.724731445313	-904.1077880859377	379.0100708007813	1470.129272460938	-965.2285156250002	-359.6707763671876	871.9732055664065	-1179.710083007813	-374.9657897949219	854.2896118164065	-954.4771728515627	-511.8457641601564	995.1531982421877	-1067.119140625	-536.4000854492189	977.9961547851565	-1096.2236328125	-538.4335937500001	973.3320312500002	-1041.007202148438	-407.2279357910157	712.4237060546876	-1252.205810546875	-330.1272583007813	676.4783325195314	-1247.5390625	-295.2757568359376	706.7167358398439	-1237.29443359375	-318.1730346679688	616.2885742187501	-1238.932250976563	-205.0059051513672	490.0348510742189	-1211.779663085938	-196.0629425048829	483.7274475097657	-1096.674072265625	-225.7645111083985	310.1884765625001	-1135.089599609375	-289.1559753417969	278.0982055664063	-1193.567626953125	-254.0838928222657	266.7572631835938	-1166.822509765625	-280.8293151855469	199.4685211181641	-1123.9453125	-370.8269348144532	118.4927062988282	-1155.443969726563	-333.1460571289063	145.5495147705078	-1077.75390625	-441.098114013672	110.5199050903321	-1108.386352539063	-235.9863739013672	79.23655700683595	-1064.184814453125	-224.5625610351563	62.63441848754884	-1105.604614257813	-270.6315917968751	33.21765518188477	-1156.713989257813	-478.7217102050782	620.8824462890626	-874.7994384765627	-431.3169250488282	574.3690795898439	-865.0758056640627	-398.8446350097657	580.9536132812501	-869.4625244140627	-444.0120849609376	490.3189697265626	-876.830261230469	-438.9152832031251	403.294647216797	-879.2766723632815	-428.6807250976564	374.1238708496094	-990.295837402344	-567.2829589843751	310.8287963867188	-906.512390136719	-664.8977050781251	368.7657775878907	-910.5391845703127	-654.0400390625001	323.5670776367188	-906.716735839844	-688.3757324218751	286.5220642089844	-940.4044189453127	-819.902526855469	305.4975891113282	-946.0367431640627	-776.6628417968752	286.6912841796876	-1018.443115234375	-849.1729125976565	360.9178161621094	-1001.857727050781	-821.4478759765627	148.34521484375	-1031.231689453125	-833.6931762695315	136.0808258056641	-980.8575439453127	-876.9255981445315	170.6370849609375	-942.9801025390627	-4216.892089843751	853.0884399414065	-3944.720458984376	nan	nan	nan	nan	nan	nan	
680	3.395	-77.82786560058595	1512.595947265625	-1213.218627929688	-253.6619110107422	1441.382080078125	-1286.441284179688	-236.2811431884766	1455.530639648438	-1134.42138671875	-303.3423767089844	1339.526489257813	-1201.306518554688	-450.0253295898439	1095.958251953125	-1086.92236328125	-167.9828186035157	1240.51904296875	-1188.9892578125	-231.9098052978516	1323.327026367188	-1325.831665039063	-130.022705078125	1295.799560546875	-1456.57373046875	-86.54852294921876	1312.668579101563	-1442.674926757813	-71.68672180175783	1284.394165039063	-1494.856811523438	-28.96033287048341	1275.612182617188	-1510.43310546875	15.71260738372803	1220.92431640625	-1456.51611328125	239.1518554687501	1279.203735351563	-1581.519165039063	199.9366302490235	1276.100708007813	-1642.469604492188	292.7301940917969	1322.899536132813	-1613.279541015625	-200.8422546386719	1363.109985351563	-1091.561767578125	-81.05928802490236	1402.028442382813	-960.3884277343752	-56.99058914184572	1414.78759765625	-1003.170959472656	-14.36667823791504	1423.829711914063	-961.7376098632815	29.9988021850586	1428.51953125	-956.8001098632815	56.05994033813478	1345.167602539063	-955.2958984375002	300.2879638671876	1445.545776367188	-969.3867187500002	282.4154357910157	1473.3779296875	-902.7014770507815	378.6604614257813	1470.656616210938	-963.1661376953127	-360.2874755859376	871.6867675781252	-1179.195678710938	-374.8285522460938	854.3123168945315	-953.8825683593752	-511.7637329101564	995.1463012695315	-1066.463745117188	-536.3280029296876	978.0364990234377	-1095.55615234375	-539.0984497070314	973.7348632812502	-1040.553100585938	-407.8982849121095	712.3646850585939	-1251.611450195313	-330.6788635253907	676.5474243164064	-1247.314086914063	-295.7353210449219	706.6978759765626	-1237.207763671875	-318.6851501464844	616.3677978515626	-1238.647583007813	-205.4072723388672	490.1946105957032	-1212.0078125	-195.9429779052735	483.885467529297	-1097.688232421875	-225.8542175292969	310.3067016601563	-1135.281616210938	-289.0748291015626	278.1834411621094	-1193.939086914063	-254.109115600586	266.9317016601563	-1167.119384765625	-280.8188171386719	199.5536651611329	-1124.196166992188	-370.8401184082032	118.4672317504883	-1155.602172851563	-333.1402587890626	145.6453704833985	-1078.010375976563	-441.0999145507814	110.5158081054688	-1108.504028320313	-235.999252319336	79.33045196533205	-1064.33154296875	-224.5870056152344	62.63811111450197	-1105.714599609375	-270.6664733886719	33.41589355468751	-1156.754760742188	-478.6116333007814	621.3139648437501	-873.570495605469	-431.4753417968751	574.9373779296876	-863.4881591796877	-398.991912841797	581.4058227539064	-868.2427368164065	-443.9037475585939	490.8034057617189	-875.2489013671877	-439.1401977539064	403.7555236816407	-877.7388305664065	-428.5673217773439	374.2389831542969	-988.3605957031252	-567.5364379882814	311.3286437988282	-904.6887207031252	-664.9923095703126	369.4591369628907	-909.0966796875002	-654.3392333984376	324.3273925781251	-905.185485839844	-688.4555664062501	287.3016662597657	-938.789733886719	-820.203796386719	306.3428649902344	-944.5313110351565	-776.8550415039065	287.3693847656251	-1016.950378417969	-849.0830078125002	361.9938964843751	-1000.550048828125	-821.9895019531252	149.3822021484375	-1030.088745117188	-834.3616943359377	136.9382781982422	-979.5227661132815	-877.659851074219	171.7605590820313	-942.0079345703127	-4216.862304687501	853.057312011719	-3944.788574218751	nan	nan	nan	nan	nan	nan	
